<svg width="50" height="50" viewBox="0 0 50 50" fill="none" xmlns="http://www.w3.org/2000/svg">
<circle cx="4" cy="46" r="2.5" fill="#D9D9D9" stroke="#DE2D2D" class="pencilicon"/>
<path d="M35.4167 6.25C35.9639 5.70282 36.6135 5.26878 37.3284 4.97265C38.0434 4.67652 38.8096 4.52411 39.5834 4.52411C40.3572 4.52411 41.1235 4.67652 41.8384 4.97265C42.5533 5.26878 43.2029 5.70282 43.7501 6.25C44.2973 6.79717 44.7313 7.44676 45.0274 8.16168C45.3236 8.8766 45.476 9.64284 45.476 10.4167C45.476 11.1905 45.3236 11.9567 45.0274 12.6716C44.7313 13.3866 44.2973 14.0362 43.7501 14.5833L15.6251 42.7083L4.16675 45.8333L7.29175 34.375L35.4167 6.25Z" fill="white" stroke="black" stroke-width="2.22222" stroke-linecap="round" stroke-linejoin="round"/>
<path d="M37.4958 10L39.698 12.2871L32.2347 19.4733C31.6031 20.0814 30.5981 20.0624 29.99 19.4308C29.3819 18.7992 29.4009 17.7942 30.0325 17.1861L37.4958 10Z" fill="black"/>
<path d="M34.4443 7.77777L42.2221 15.5555" stroke="black" stroke-width="1.11111" stroke-linejoin="round"/>
</svg>
