<svg width="17" height="17" viewBox="0 0 17 17" fill="none" xmlns="http://www.w3.org/2000/svg">
<path d="M8.28014 0.0150146C6.08903 0.017977 3.98852 0.889702 2.43917 2.43905C0.889824 3.9884 0.0180991 6.08891 0.0151367 8.28001C0.471226 19.2443 16.0907 19.2411 16.5452 8.27995C16.5422 6.08886 15.6704 3.98836 14.1211 2.43902C12.5717 0.889691 10.4712 0.0179754 8.28014 0.0150146V0.0150146ZM8.28014 13.065C6.45963 13.0075 6.46005 10.3673 8.28017 10.31C10.1006 10.3675 10.1002 13.0078 8.28014 13.065ZM9.97954 5.34521L9.70404 8.53521C9.67298 8.89168 9.50933 9.22353 9.24545 9.46518C8.98156 9.70682 8.63662 9.84069 8.27881 9.84033C7.92099 9.83997 7.57633 9.70539 7.31293 9.46321C7.04954 9.22102 6.88657 8.88884 6.85624 8.53231L6.58074 5.34521C6.56052 5.11017 6.58954 4.87349 6.66594 4.65029C6.74234 4.42709 6.86443 4.22227 7.02444 4.04891C8.09103 2.85141 10.1352 3.75356 9.97954 5.34521V5.34521Z" fill="white"/>
</svg>
